<mxfile host="app.diagrams.net" modified="2025-09-10T00:00:00Z" agent="CFB" version="22.1.0">
  <diagram id="er-scoring" name="Scoring ER">
    <mxGraphModel dx="1600" dy="900" grid="1" gridSize="10" guides="1" tooltips="1" connect="1" arrows="1" fold="1" page="1" pageScale="1" pageWidth="1920" pageHeight="1080" math="0" shadow="0">
      <root>
        <mxCell id="0"/>
        <mxCell id="1" parent="0"/>
        <mxCell id="tbl-player-stats" value="player_stats" style="shape=table;container=1;childLayout=tableLayout;strokeColor=#0ea5e9;fillColor=#e0f2fe;rounded=1;" vertex="1" parent="1">
          <mxGeometry x="260" y="180" width="380" height="176" as="geometry"/>
        </mxCell>
        <mxCell id="ps-id" value="id,PK" style="shape=tableRow;" vertex="1" parent="tbl-player-stats"><mxGeometry x="0" y="28" width="380" height="24" as="geometry"/></mxCell>
        <mxCell id="ps-player" value="playerId,FKey" style="shape=tableRow;" vertex="1" parent="tbl-player-stats"><mxGeometry x="0" y="52" width="380" height="24" as="geometry"/></mxCell>
        <mxCell id="tbl-lineups" value="lineups" style="shape=table;container=1;childLayout=tableLayout;strokeColor=#06b6d4;fillColor=#cffafe;rounded=1;" vertex="1" parent="1">
          <mxGeometry x="680" y="220" width="380" height="152" as="geometry"/>
        </mxCell>
        <mxCell id="lineups-id" value="id,PK" style="shape=tableRow;" vertex="1" parent="tbl-lineups"><mxGeometry x="0" y="28" width="380" height="24" as="geometry"/></mxCell>
        <mxCell id="lineups-team" value="teamId,FKey" style="shape=tableRow;" vertex="1" parent="tbl-lineups"><mxGeometry x="0" y="52" width="380" height="24" as="geometry"/></mxCell>
        <mxCell id="edge-stats-lineups" edge="1" parent="1" source="tbl-player-stats" target="tbl-lineups" style="endArrow=classic;strokeColor=#334155;endSize=8;">
          <mxGeometry relative="1" as="geometry"/>
        </mxCell>
      </root>
    </mxGraphModel>
  </diagram>
</mxfile>
